# xmcd CD database file
#
# Track frame offsets:
#	150
#	11431
#	25050
#	38230
#	51499
#	62804
#	75404
#	108071
#	131983
#	145297
#	158525
#	171701
#	183781
#	196020
#	208200
#	221030
#	234496
#	246830
#	260050
#	273549
#	285268
#	304500
#	315563
#	328550
#
# Disc length: 4593 seconds
#
# Revision: 0
# Processed by: cddbd v1.5.2PL0 Copyright (c) Steve Scherf et al.
# Submitted via: CDex 1.70beta2
#
DISCID=5811ef18
DTITLE=Dexter gordon - Bebop Story Vol 2 1952-53
DYEAR=2008
DGENRE=Jazz
TTITLE0=I'll Follow You
TTITLE1=Bop!
TTITLE2=Ghost Of a Chance
TTITLE3=Ghost Of a Chance
TTITLE4=Sweet And Lovely
TTITLE5=Sweet And Lovely
TTITLE6=Hornin' In Pt. 1 and 2
TTITLE7=The Duel Pt. 1 +2
TTITLE8=Blues In Teddy's Flat
TTITLE9=Settin' The Pace Pt. 1
TTITLE10=Settin' The Pace Pt. 2
TTITLE11=So Easy
TTITLE12=Dexter's Riff
TTITLE13=Wee Dot
TTITLE14=Solitude
TTITLE15=Lion Roars
TTITLE16=Mad Lad Boogie
TTITLE17=The Rubaiyat
TTITLE18=The Rubaiyat
TTITLE19=I Hear You Knockin'
TTITLE20=My Kinda Love
TTITLE21=Jingle Jangle Jump
TTITLE22=Citizen's Bop
TTITLE23=Man With A Horn
EXTD=YEAR: 2008
EXTT0=
EXTT1=
EXTT2=
EXTT3=
EXTT4=
EXTT5=
EXTT6=
EXTT7=
EXTT8=
EXTT9=
EXTT10=
EXTT11=
EXTT12=
EXTT13=
EXTT14=
EXTT15=
EXTT16=
EXTT17=
EXTT18=
EXTT19=
EXTT20=
EXTT21=
EXTT22=
EXTT23=
PLAYORDER=
